<svg width="138" height="20" viewBox="0 0 138 20" fill="none" xmlns="http://www.w3.org/2000/svg">
<g clip-path="url(#clip0_1027_3495)">
<path d="M0.872803 0.367898H8.35945C9.76867 0.35924 11.168 0.604128 12.4904 1.09069C13.6987 1.53643 14.8049 2.22113 15.7424 3.10421C16.6362 3.97517 17.3545 5.00914 17.8591 6.15046C18.3657 7.34101 18.6121 8.62581 18.5822 9.91926V9.97071C18.5869 11.2619 18.3412 12.542 17.8591 13.74C17.3731 14.8915 16.652 15.9292 15.7424 16.7863C14.8131 17.68 13.7047 18.3664 12.4904 18.8C11.1747 19.3111 9.77064 19.557 8.35945 19.5228H0.872803V0.367898ZM8.35945 15.7538C9.16857 15.7553 9.9715 15.6155 10.7326 15.3407C11.4238 15.1007 12.0446 14.6928 12.5396 14.1541C13.0395 13.6272 13.4415 13.0152 13.7262 12.3471C14.006 11.6048 14.146 10.8169 14.1393 10.0236V9.9717C14.1366 9.1794 13.9968 8.39354 13.7262 7.64873C13.4741 6.94845 13.0687 6.31323 12.5396 5.78981C12.0352 5.26194 11.4173 4.85627 10.7326 4.60322C9.97175 4.3284 9.16857 4.18889 8.35945 4.19062H5.10738V15.7558L8.35945 15.7538Z" fill="black"/>
<path d="M22.5055 0.367676H26.7394V19.5226H22.5055V0.367676Z" fill="black"/>
<path d="M40.7304 19.8849C39.3382 19.8935 37.956 19.6486 36.6519 19.1621C35.4752 18.6896 34.4043 17.9876 33.5022 17.0966C32.5852 16.1767 31.8652 15.0799 31.386 13.8728C30.9066 12.6656 30.6781 11.3734 30.7144 10.0753V10.0238C30.7016 8.71009 30.9658 7.40823 31.4892 6.20308C31.9861 5.02713 32.705 3.95778 33.6061 3.05343C34.5011 2.14116 35.5726 1.4211 36.7553 0.936515C38.0329 0.412851 39.402 0.149659 40.7826 0.162274C41.5598 0.155101 42.3365 0.207046 43.1058 0.31737C43.7744 0.427693 44.4311 0.600351 45.0676 0.833365C45.664 1.04585 46.2351 1.32265 46.7714 1.65906C47.3117 2.00388 47.8291 2.38333 48.3204 2.79494L45.6872 5.99604C45.3261 5.68832 44.9644 5.42835 44.6033 5.17035C44.2419 4.93338 43.862 4.72609 43.4672 4.55071C43.0541 4.37607 42.6202 4.25462 42.1764 4.18907C41.6844 4.08369 41.1823 4.03175 40.6792 4.03397C39.9311 4.02828 39.191 4.18709 38.5108 4.49901C37.8538 4.82182 37.2594 5.2589 36.7553 5.78974C36.2427 6.34556 35.84 6.99365 35.5687 7.69962C35.2981 8.44442 35.1583 9.23054 35.1556 10.0231V10.0745C35.1538 10.901 35.2936 11.7217 35.5687 12.5011C35.8314 13.2143 36.237 13.8661 36.7609 14.4165C37.2849 14.9671 37.9159 15.4044 38.6149 15.702C39.3493 16.0142 40.1404 16.1725 40.9384 16.1668C42.3503 16.2175 43.7417 15.8197 44.9137 15.0307V12.2941H40.6799V8.67966H48.9922V16.9932C47.9234 17.8684 46.7427 18.5976 45.4814 19.1613C43.9399 19.6266 42.3402 19.8703 40.7304 19.8849Z" fill="black"/>
<path d="M53.1218 0.367676H57.3557V19.5226H53.1218V0.367676Z" fill="black"/>
<path d="M62.1572 0.367676H76.5637V4.13697H66.2878V8.00867H75.3229V11.778H66.2878V15.805H76.6651V19.5738H62.1055V0.367676H62.1572Z" fill="black"/>
<path d="M89.6757 19.8851C88.2835 19.894 86.9013 19.6489 85.5972 19.1623C84.4205 18.6899 83.3496 17.9879 82.4475 17.0969C81.5305 16.1769 80.8107 15.0799 80.3313 13.8728C79.8522 12.6656 79.6234 11.3734 79.6598 10.0753V10.0238C79.6469 8.71009 79.9108 7.40823 80.434 6.20308C80.9309 5.02713 81.6498 3.95779 82.5507 3.05343C83.4461 2.14116 84.5174 1.4211 85.7003 0.936515C86.9779 0.412851 88.3468 0.149659 89.7274 0.162274C90.5046 0.155101 91.2813 0.207046 92.0508 0.31737C92.7195 0.427693 93.3762 0.600351 94.0127 0.833365C94.6091 1.04585 95.1802 1.32265 95.7165 1.65906C96.2567 2.00388 96.7742 2.38333 97.2655 2.79494L94.6323 5.99604C94.2712 5.68833 93.9095 5.42835 93.5481 5.17035C93.1867 4.93338 92.807 4.72634 92.4122 4.55071C91.9991 4.37607 91.5653 4.25462 91.1215 4.18907C90.6295 4.08369 90.1276 4.03175 89.6242 4.03397C88.876 4.02828 88.1356 4.18709 87.4554 4.49901C86.7986 4.82182 86.2042 5.25891 85.7001 5.78974C85.1875 6.34556 84.7848 6.99365 84.5135 7.69962C84.2429 8.44443 84.1031 9.23054 84.1004 10.0231V10.0745C84.0987 10.901 84.2384 11.7217 84.5135 12.5012C84.7762 13.2143 85.1819 13.8661 85.7058 14.4165C86.2297 14.9668 86.8607 15.4044 87.5597 15.702C88.2942 16.0144 89.0852 16.1725 89.8832 16.167C91.2951 16.2178 92.6866 15.82 93.8586 15.0309V12.2944H89.625V8.67991H97.9363V16.9935C96.8675 17.8686 95.6868 18.5979 94.4255 19.1616C92.8847 19.6269 91.2853 19.8703 89.6757 19.8851Z" fill="black"/>
<path d="M111.155 19.8851C109.762 19.894 108.38 19.6489 107.076 19.1623C105.889 18.7092 104.815 18.0044 103.927 17.0969C103.01 16.1769 102.289 15.0801 101.81 13.873C101.33 12.6659 101.102 11.3737 101.138 10.0753V10.0238C101.125 8.71009 101.39 7.40823 101.913 6.20308C102.41 5.02713 103.129 3.95779 104.03 3.05343C104.925 2.14141 105.996 1.4211 107.179 0.936515C108.456 0.412851 109.825 0.149659 111.206 0.162274C111.983 0.155101 112.76 0.207046 113.529 0.31737C114.198 0.427693 114.855 0.600351 115.492 0.833365C116.088 1.04585 116.659 1.32265 117.195 1.65906C117.736 2.00363 118.253 2.38308 118.744 2.79494L116.111 5.99604C115.75 5.68833 115.389 5.42835 115.027 5.17035C114.666 4.93338 114.286 4.72634 113.892 4.55071C113.479 4.37607 113.045 4.25462 112.601 4.18907C112.109 4.08369 111.607 4.03175 111.104 4.03397C110.355 4.02828 109.615 4.18709 108.935 4.49901C108.278 4.82182 107.684 5.25891 107.18 5.78974C106.667 6.34556 106.264 6.99365 105.993 7.69962C105.698 8.43775 105.557 9.22831 105.58 10.0231V10.0745C105.578 10.901 105.718 11.7217 105.993 12.5012C106.245 13.2168 106.649 13.8688 107.18 14.4115C107.712 14.956 108.342 15.3938 109.039 15.702C109.773 16.0144 110.564 16.1727 111.362 16.167C112.774 16.2178 114.165 15.82 115.337 15.0309V12.2944H111.104V8.67991H119.415V16.9935C118.346 17.8686 117.166 18.5979 115.904 19.1616C114.363 19.6269 112.764 19.8703 111.155 19.8851Z" fill="black"/>
<path d="M130.205 19.8329C128.742 19.8315 127.291 19.5693 125.92 19.0587C124.509 18.5373 123.212 17.7482 122.1 16.7352L124.578 13.7407C125.391 14.4283 126.294 15.0015 127.263 15.4445C128.222 15.8672 129.261 16.0787 130.309 16.0646C131.011 16.1079 131.711 15.9464 132.322 15.5996C132.548 15.4566 132.733 15.2582 132.859 15.023C132.986 14.788 133.05 14.5246 133.045 14.2574V14.2055C133.049 13.9559 132.996 13.7088 132.89 13.4824C132.756 13.245 132.56 13.0486 132.322 12.9147C131.953 12.675 131.554 12.4841 131.135 12.347C130.494 12.116 129.839 11.9263 129.174 11.7793C128.193 11.5206 127.315 11.2624 126.541 11.0046C125.827 10.7281 125.151 10.3637 124.527 9.92042C123.975 9.49867 123.532 8.94953 123.236 8.31999C122.904 7.5742 122.745 6.76285 122.772 5.94706V5.89511C122.761 5.08055 122.92 4.27242 123.236 3.52193C123.547 2.81521 124.026 2.19483 124.631 1.71495C125.249 1.1809 125.969 0.777203 126.747 0.528357C127.616 0.253538 128.521 0.114274 129.432 0.115263C130.749 0.102895 132.058 0.31241 133.304 0.734904C134.481 1.15146 135.581 1.76244 136.556 2.54237L134.388 5.69203C133.584 5.15946 132.738 4.69318 131.858 4.29765C131.077 3.95407 130.233 3.77819 129.38 3.78141C128.727 3.73466 128.076 3.89742 127.521 4.24595C127.33 4.37928 127.174 4.55664 127.066 4.76319C126.958 4.96973 126.902 5.19928 126.902 5.43254V5.48449C126.899 5.76747 126.951 6.04823 127.057 6.31068C127.208 6.5662 127.421 6.77943 127.676 6.93032C128.077 7.16902 128.512 7.34316 128.967 7.44656C129.483 7.60166 130.206 7.80771 131.033 8.01426C131.913 8.2443 132.776 8.53792 133.614 8.89313C134.304 9.17463 134.948 9.55754 135.525 10.0293C136.022 10.4587 136.426 10.9858 136.711 11.578C136.996 12.2647 137.137 13.0028 137.124 13.7464V13.7983C137.157 14.6314 136.997 15.4608 136.657 16.222C136.316 16.9831 135.805 17.6554 135.162 18.1867C134.51 18.7159 133.753 19.1027 132.942 19.3221C132.078 19.6932 131.144 19.8678 130.205 19.8329Z" fill="black"/>
</g>
<defs>
<clipPath id="clip0_1027_3495">
<rect width="136.254" height="19.7701" fill="white" transform="translate(0.872803 0.114746)"/>
</clipPath>
</defs>
</svg>
